mtllib model_2.mtl
o model_2
v 129.5681915283203 336.9336242675781 365.178466796875 
v 129.2964630126953 336.316650390625 365.23974609375 
v 70.33795928955078 359.8783874511719 332.9305114746094 
v 70.04553985595703 359.2091369628906 332.9927062988281 
v 128.9546661376953 335.7300720214844 365.45135498046875 
v 69.70374298095703 358.6225891113281 333.204345703125 
v 128.58685302734375 335.216064453125 365.7622985839844 
v 69.33592987060547 358.10858154296875 333.5152587890625 
v 128.21371459960938 334.8268737792969 366.1716003417969 
v 68.9627914428711 357.7193603515625 333.9245910644531 
v 127.8379135131836 334.50006103515625 366.6300964355469 
v 68.58699035644531 357.392578125 334.3830871582031 
v 127.45679473876953 334.2980651855469 367.1869812011719 
v 68.20586395263672 357.1905822753906 334.93994140625 
v 127.09370422363281 334.2107238769531 367.7921142578125 
v 67.84278106689453 357.1032409667969 335.54510498046875 
v 126.79270935058594 334.2801818847656 368.39447021484375 
v 67.51842498779297 357.1828308105469 336.19757080078125 
v 67.51842498779297 357.1828308105469 336.19757080078125 
v 67.25882720947266 357.3567810058594 336.7980651855469 
v 126.50975036621094 334.4642639160156 369.0450744628906 
v 126.31224060058594 334.7950134277344 369.6427917480469 
v 67.06131744384766 357.6875305175781 337.395751953125 
v 126.17948150634766 335.2201232910156 370.1885070800781 
v 66.92855834960938 358.1126403808594 337.9414978027344 
v 126.13483428955078 335.7294921875 370.63214111328125 
v 66.88390350341797 358.6219787597656 338.3851318359375 
v 126.13423919677734 336.2809753417969 371.0247497558594 
v 66.88331604003906 359.1734619140625 338.7777099609375 
v 126.22175598144531 336.91668701171875 371.3152160644531 
v 66.97083282470703 359.8091735839844 339.0682067871094 
v 126.3766860961914 337.5843505859375 371.5045471191406 
v 67.12576293945312 360.47686767578125 339.2575378417969 
v 126.60169219970703 338.22161865234375 371.54351806640625 
v 67.37146759033203 361.1663818359375 339.2955627441406 
v 126.79270935058594 334.2801818847656 368.39447021484375 
v 128.73377990722656 340.909423828125 369.5340881347656 
v 69.10173797607422 363.59991455078125 337.84393310546875 
v 128.3526611328125 340.7074279785156 370.0909729003906 
v 68.72593688964844 363.27313232421875 338.30242919921875 
v 127.97686004638672 340.380615234375 370.5494689941406 
v 68.35279846191406 362.8839111328125 338.7117614746094 
v 127.60372161865234 339.9914245605469 370.9587707519531 
v 67.9849853515625 362.3699035644531 339.0226745605469 
v 127.23590850830078 339.4774169921875 371.26971435546875 
v 67.6431884765625 361.7833557128906 339.23431396484375 
v 126.89411163330078 338.890869140625 371.4813232421875 
v 67.37146759033203 361.1663818359375 339.2955627441406 
v 126.60169219970703 338.22161865234375 371.54351806640625 
v 69.48285675048828 363.80194091796875 337.28704833984375 
v 129.0968780517578 340.99676513671875 368.928955078125 
v 69.845947265625 363.8892517089844 336.6819152832031 
v 129.4212188720703 340.91717529296875 368.2764892578125 
v 70.14694213867188 363.81982421875 336.0795593261719 
v 129.8138885498047 337.6231384277344 365.2165222167969 
v 129.9688262939453 338.29083251953125 365.4058532714844 
v 70.7178955078125 361.1833190917969 333.1588134765625 
v 70.80541229248047 361.81903076171875 333.4493103027344 
v 130.05633544921875 338.9265441894531 365.6963195800781 
v 70.80481719970703 362.3705139160156 333.8418884277344 
v 130.0557403564453 339.4779968261719 366.08892822265625 
v 70.76016998291016 362.8798522949219 334.2855224609375 
v 130.01109313964844 339.98736572265625 366.5325622558594 
v 70.62741088867188 363.30499267578125 334.8312683105469 
v 129.8783416748047 340.4124755859375 367.0782775878906 
v 70.42990112304688 363.6357116699219 335.428955078125 
v 129.6808319091797 340.74322509765625 367.6759948730469 
v 70.14694213867188 363.81982421875 336.0795593261719 
v 129.4212188720703 340.91717529296875 368.2764892578125 
v 70.5629653930664 360.515625 332.969482421875 
v 129.5681915283203 336.9336242675781 365.178466796875 
v 70.33795928955078 359.8783874511719 332.9305114746094 
v 129.4212188720703 340.91717529296875 368.2764892578125 
v 129.6808319091797 340.74322509765625 367.6759948730469 
v 129.0968780517578 340.99676513671875 368.928955078125 
v 128.73377990722656 340.909423828125 369.5340881347656 
v 129.8783416748047 340.4124755859375 367.0782775878906 
v 128.3526611328125 340.7074279785156 370.0909729003906 
v 130.01109313964844 339.98736572265625 366.5325622558594 
v 127.97686004638672 340.380615234375 370.5494689941406 
v 130.0557403564453 339.4779968261719 366.08892822265625 
v 127.60372161865234 339.9914245605469 370.9587707519531 
v 130.05633544921875 338.9265441894531 365.6963195800781 
v 127.23590850830078 339.4774169921875 371.26971435546875 
v 129.9688262939453 338.29083251953125 365.4058532714844 
v 126.89411163330078 338.890869140625 371.4813232421875 
v 129.8138885498047 337.6231384277344 365.2165222167969 
v 126.60169219970703 338.22161865234375 371.54351806640625 
v 129.5681915283203 336.9336242675781 365.178466796875 
v 126.3766860961914 337.5843505859375 371.5045471191406 
v 129.2964630126953 336.316650390625 365.23974609375 
v 126.22175598144531 336.91668701171875 371.3152160644531 
v 128.9546661376953 335.7300720214844 365.45135498046875 
v 126.13423919677734 336.2809753417969 371.0247497558594 
v 128.58685302734375 335.216064453125 365.7622985839844 
v 126.13483428955078 335.7294921875 370.63214111328125 
v 128.21371459960938 334.8268737792969 366.1716003417969 
v 126.17948150634766 335.2201232910156 370.1885070800781 
v 127.8379135131836 334.50006103515625 366.6300964355469 
v 126.31224060058594 334.7950134277344 369.6427917480469 
v 127.45679473876953 334.2980651855469 367.1869812011719 
v 126.50975036621094 334.4642639160156 369.0450744628906 
v 127.09370422363281 334.2107238769531 367.7921142578125 
v 126.79270935058594 334.2801818847656 368.39447021484375 
v 70.14694213867188 363.81982421875 336.0795593261719 
v 70.42990112304688 363.6357116699219 335.428955078125 
v 69.845947265625 363.8892517089844 336.6819152832031 
v 70.62741088867188 363.30499267578125 334.8312683105469 
v 69.48285675048828 363.80194091796875 337.28704833984375 
v 70.76016998291016 362.8798522949219 334.2855224609375 
v 69.10173797607422 363.59991455078125 337.84393310546875 
v 70.80481719970703 362.3705139160156 333.8418884277344 
v 68.72593688964844 363.27313232421875 338.30242919921875 
v 70.80541229248047 361.81903076171875 333.4493103027344 
v 68.35279846191406 362.8839111328125 338.7117614746094 
v 70.7178955078125 361.1833190917969 333.1588134765625 
v 67.9849853515625 362.3699035644531 339.0226745605469 
v 70.5629653930664 360.515625 332.969482421875 
v 67.6431884765625 361.7833557128906 339.23431396484375 
v 70.33795928955078 359.8783874511719 332.9305114746094 
v 67.37146759033203 361.1663818359375 339.2955627441406 
v 70.04553985595703 359.2091369628906 332.9927062988281 
v 67.12576293945312 360.47686767578125 339.2575378417969 
v 69.70374298095703 358.6225891113281 333.204345703125 
v 66.97083282470703 359.8091735839844 339.0682067871094 
v 69.33592987060547 358.10858154296875 333.5152587890625 
v 66.88331604003906 359.1734619140625 338.7777099609375 
v 68.9627914428711 357.7193603515625 333.9245910644531 
v 66.88390350341797 358.6219787597656 338.3851318359375 
v 68.58699035644531 357.392578125 334.3830871582031 
v 66.92855834960938 358.1126403808594 337.9414978027344 
v 68.20586395263672 357.1905822753906 334.93994140625 
v 67.06131744384766 357.6875305175781 337.395751953125 
v 67.84278106689453 357.1032409667969 335.54510498046875 
v 67.25882720947266 357.3567810058594 336.7980651855469 
v 67.51842498779297 357.1828308105469 336.19757080078125 
vn 0.20071738958358765 -0.08160834014415741 -0.11904928088188171 
vn 0.18441586196422577 -0.11794393509626389 -0.11489175260066986 
vn -0.03059012070298195 0.0088955732062459 -0.24516338109970093 
vn -0.046871379017829895 -0.02761196531355381 -0.2411651611328125 
vn 0.16547933220863342 -0.15146708488464355 -0.10389605909585953 
vn -0.0658208504319191 -0.061319977045059204 -0.2302769422531128 
vn 0.14463549852371216 -0.1808895319700241 -0.08648474514484406 
vn -0.0867055132985115 -0.09092454612255096 -0.2129199057817459 
vn 0.12268536537885666 -0.20508058369159698 -0.063326895236969 
vn -0.10871747881174088 -0.11528049409389496 -0.18976549804210663 
vn 0.10047249495983124 -0.22311058640480042 -0.035312481224536896 
vn -0.13100528717041016 -0.13344566524028778 -0.16170935332775116 
vn 0.07885049283504486 -0.23428663611412048 -0.003518067067489028 
vn -0.15270677208900452 -0.14471736550331116 -0.1298367828130722 
vn 0.05865029618144035 -0.2381792813539505 0.03083450347185135 
vn -0.17298245429992676 -0.1486596018075943 -0.09538071602582932 
vn 0.040648169815540314 -0.23463892936706543 0.06642507761716843 
vn -0.1910480409860611 -0.14511986076831818 -0.0596739798784256 
vn -0.1910480409860611 -0.14511986076831818 -0.0596739798784256 
vn -0.20620468258857727 -0.13423506915569305 -0.024097824469208717 
vn 0.0255359448492527 -0.22380158305168152 0.10188593715429306 
vn 0.013894359581172466 -0.2060837745666504 0.1358543336391449 
vn -0.21786609292030334 -0.11642628163099289 0.00997157022356987 
vn 0.006170798558741808 -0.18216638267040253 0.1670248657464981 
vn -0.22558116912841797 -0.09238240122795105 0.04121631756424904 
vn 0.0026620780117809772 -0.15296849608421326 0.19419971108436584 
vn -0.22905148565769196 -0.06303349882364273 0.06842778623104095 
vn 0.003503031563013792 -0.1196122020483017 0.2163345068693161 
vn -0.22814276814460754 -0.029514873400330544 0.09055334329605103 
vn 0.008661346510052681 -0.083379365503788 0.23257865011692047 
vn -0.2228902131319046 0.00687689334154129 0.10673714429140091 
vn 0.01793878711760044 -0.04566239193081856 0.2423078864812851 
vn -0.21349696815013885 0.044734057039022446 0.1163531243801117 
vn 0.030978821218013763 -0.007910718210041523 0.24514834582805634 
vn -0.20032639801502228 0.0825922042131424 0.11902932822704315 
vn 0.040648169815540314 -0.23463892936706543 0.06642507761716843 
vn 0.15284571051597595 0.14476758241653442 0.1296171247959137 
vn -0.10069093108177185 0.22296471893787384 0.03561028838157654 
vn 0.13122372329235077 0.13359151780605316 0.16141153872013092 
vn -0.12297873944044113 0.20479954779148102 0.063666433095932 
vn 0.10901084542274475 0.11556152254343033 0.18942596018314362 
vn -0.1449906975030899 0.18044361472129822 0.08682084083557129 
vn 0.08706071972846985 0.09137047082185745 0.21258381009101868 
vn -0.1658753603696823 0.15083903074264526 0.10417788475751877 
vn 0.06621688604354858 0.0619480274617672 0.22999511659145355 
vn -0.1848248392343521 0.11713102459907532 0.11506610363721848 
vn 0.04728034883737564 0.02842487208545208 0.24099081754684448 
vn -0.20032639801502228 0.0825922042131424 0.11902932822704315 
vn 0.030978821218013763 -0.007910718210041523 0.24514834582805634 
vn -0.07898944616317749 0.23423641920089722 0.0037377236876636744 
vn 0.17304591834545135 0.14866022765636444 0.09526456147432327 
vn -0.05871375650167465 0.23817865550518036 -0.030718345195055008 
vn 0.1910480409860611 0.14511986076831818 0.0596739798784256 
vn -0.040648169815540314 0.23463892936706543 -0.06642507761716843 
vn 0.21375742554664612 -0.0438566692173481 -0.11620882898569107 
vn 0.22303487360477448 -0.006139695178717375 -0.10647959262132645 
vn -0.008806003257632256 0.08264216780662537 -0.23283620178699493 
vn -0.0035534417256712914 0.11903393268585205 -0.21665240824222565 
vn 0.22819317877292633 0.030093137174844742 -0.09023544937372208 
vn -0.0026447344571352005 0.1525525599718094 -0.19452685117721558 
vn 0.22903414070606232 0.063449427485466 -0.06810064613819122 
vn -0.00611504353582859 0.1819014698266983 -0.16731537878513336 
vn 0.2255254089832306 0.09264731407165527 -0.04092581197619438 
vn -0.013830124400556087 0.20594534277915955 -0.1360706239938736 
vn 0.21780185401439667 0.11656472086906433 -0.009755266830325127 
vn -0.02549153007566929 0.2237541228532791 -0.10200123488903046 
vn 0.2061602622270584 0.13428252935409546 0.024213125929236412 
vn -0.040648169815540314 0.23463892936706543 -0.06642507761716843 
vn 0.1910480409860611 0.14511986076831818 0.0596739798784256 
vn -0.018199246376752853 0.04478500783443451 -0.24245218932628632 
vn 0.20071738958358765 -0.08160834014415741 -0.11904928088188171 
vn -0.03059012070298195 0.0088955732062459 -0.24516338109970093 
vn 0.1910480409860611 0.14511986076831818 0.0596739798784256 
vn 0.2061602622270584 0.13428252935409546 0.024213125929236412 
vn 0.17304591834545135 0.14866022765636444 0.09526456147432327 
vn 0.15284571051597595 0.14476758241653442 0.1296171247959137 
vn 0.21780185401439667 0.11656472086906433 -0.009755266830325127 
vn 0.13122372329235077 0.13359151780605316 0.16141153872013092 
vn 0.2255254089832306 0.09264731407165527 -0.04092581197619438 
vn 0.10901084542274475 0.11556152254343033 0.18942596018314362 
vn 0.22903414070606232 0.063449427485466 -0.06810064613819122 
vn 0.08706071972846985 0.09137047082185745 0.21258381009101868 
vn 0.22819317877292633 0.030093137174844742 -0.09023544937372208 
vn 0.06621688604354858 0.0619480274617672 0.22999511659145355 
vn 0.22303487360477448 -0.006139695178717375 -0.10647959262132645 
vn 0.04728034883737564 0.02842487208545208 0.24099081754684448 
vn 0.21375742554664612 -0.0438566692173481 -0.11620882898569107 
vn 0.030978821218013763 -0.007910718210041523 0.24514834582805634 
vn 0.20071738958358765 -0.08160834014415741 -0.11904928088188171 
vn 0.01793878711760044 -0.04566239193081856 0.2423078864812851 
vn 0.18441586196422577 -0.11794393509626389 -0.11489175260066986 
vn 0.008661346510052681 -0.083379365503788 0.23257865011692047 
vn 0.16547933220863342 -0.15146708488464355 -0.10389605909585953 
vn 0.003503031563013792 -0.1196122020483017 0.2163345068693161 
vn 0.14463549852371216 -0.1808895319700241 -0.08648474514484406 
vn 0.0026620780117809772 -0.15296849608421326 0.19419971108436584 
vn 0.12268536537885666 -0.20508058369159698 -0.063326895236969 
vn 0.006170798558741808 -0.18216638267040253 0.1670248657464981 
vn 0.10047249495983124 -0.22311058640480042 -0.035312481224536896 
vn 0.013894359581172466 -0.2060837745666504 0.1358543336391449 
vn 0.07885049283504486 -0.23428663611412048 -0.003518067067489028 
vn 0.0255359448492527 -0.22380158305168152 0.10188593715429306 
vn 0.05865029618144035 -0.2381792813539505 0.03083450347185135 
vn 0.040648169815540314 -0.23463892936706543 0.06642507761716843 
vn -0.040648169815540314 0.23463892936706543 -0.06642507761716843 
vn -0.02549153007566929 0.2237541228532791 -0.10200123488903046 
vn -0.05871375650167465 0.23817865550518036 -0.030718345195055008 
vn -0.013830124400556087 0.20594534277915955 -0.1360706239938736 
vn -0.07898944616317749 0.23423641920089722 0.0037377236876636744 
vn -0.00611504353582859 0.1819014698266983 -0.16731537878513336 
vn -0.10069093108177185 0.22296471893787384 0.03561028838157654 
vn -0.0026447344571352005 0.1525525599718094 -0.19452685117721558 
vn -0.12297873944044113 0.20479954779148102 0.063666433095932 
vn -0.0035534417256712914 0.11903393268585205 -0.21665240824222565 
vn -0.1449906975030899 0.18044361472129822 0.08682084083557129 
vn -0.008806003257632256 0.08264216780662537 -0.23283620178699493 
vn -0.1658753603696823 0.15083903074264526 0.10417788475751877 
vn -0.018199246376752853 0.04478500783443451 -0.24245218932628632 
vn -0.1848248392343521 0.11713102459907532 0.11506610363721848 
vn -0.03059012070298195 0.0088955732062459 -0.24516338109970093 
vn -0.20032639801502228 0.0825922042131424 0.11902932822704315 
vn -0.046871379017829895 -0.02761196531355381 -0.2411651611328125 
vn -0.21349696815013885 0.044734057039022446 0.1163531243801117 
vn -0.0658208504319191 -0.061319977045059204 -0.2302769422531128 
vn -0.2228902131319046 0.00687689334154129 0.10673714429140091 
vn -0.0867055132985115 -0.09092454612255096 -0.2129199057817459 
vn -0.22814276814460754 -0.029514873400330544 0.09055334329605103 
vn -0.10871747881174088 -0.11528049409389496 -0.18976549804210663 
vn -0.22905148565769196 -0.06303349882364273 0.06842778623104095 
vn -0.13100528717041016 -0.13344566524028778 -0.16170935332775116 
vn -0.22558116912841797 -0.09238240122795105 0.04121631756424904 
vn -0.15270677208900452 -0.14471736550331116 -0.1298367828130722 
vn -0.21786609292030334 -0.11642628163099289 0.00997157022356987 
vn -0.17298245429992676 -0.1486596018075943 -0.09538071602582932 
vn -0.20620468258857727 -0.13423506915569305 -0.024097824469208717 
vn -0.1910480409860611 -0.14511986076831818 -0.0596739798784256 
s on 
f 1//1 2//2 3//3 
f 2//2 2//2 3//3 
f 3//3 2//2 4//4 
f 2//2 5//5 4//4 
f 4//4 5//5 6//6 
f 5//5 7//7 6//6 
f 6//6 7//7 8//8 
f 7//7 9//9 8//8 
f 8//8 9//9 10//10 
f 9//9 11//11 10//10 
f 10//10 11//11 12//12 
f 11//11 13//13 12//12 
f 12//12 13//13 14//14 
f 13//13 15//15 14//14 
f 14//14 15//15 16//16 
f 15//15 17//17 16//16 
f 16//16 17//17 18//18 
f 17//17 18//18 18//18 
f 18//18 18//18 19//19 
f 18//18 19//19 19//19 
f 19//19 19//19 20//20 
f 19//19 21//21 20//20 
f 20//20 21//21 20//20 
f 21//21 22//22 20//20 
f 20//20 22//22 23//23 
f 22//22 24//24 23//23 
f 23//23 24//24 25//25 
f 24//24 26//26 25//25 
f 25//25 26//26 27//27 
f 26//26 28//28 27//27 
f 27//27 28//28 29//29 
f 28//28 30//30 29//29 
f 29//29 30//30 31//31 
f 30//30 32//32 31//31 
f 31//31 32//32 33//33 
f 32//32 34//34 33//33 
f 33//33 34//34 35//35 
f 34//34 35//35 35//35 
f 35//35 35//35 19//19 
f 35//35 19//19 19//19 
f 19//19 19//19 21//21 
f 19//19 36//36 21//21 
f 21//21 36//36 36//36 
f 36//36 37//37 36//36 
f 36//36 37//37 37//37 
f 37//37 38//38 37//37 
f 37//37 38//38 39//39 
f 38//38 40//40 39//39 
f 39//39 40//40 41//41 
f 40//40 42//42 41//41 
f 41//41 42//42 43//43 
f 42//42 44//44 43//43 
f 43//43 44//44 45//45 
f 44//44 46//46 45//45 
f 45//45 46//46 47//47 
f 46//46 48//48 47//47 
f 47//47 48//48 49//49 
f 48//48 49//49 49//49 
f 49//49 49//49 38//38 
f 49//49 38//38 38//38 
f 38//38 38//38 50//50 
f 38//38 37//37 50//50 
f 50//50 37//37 50//50 
f 37//37 51//51 50//50 
f 50//50 51//51 52//52 
f 51//51 53//53 52//52 
f 52//52 53//53 54//54 
f 53//53 54//54 54//54 
f 54//54 54//54 55//55 
f 54//54 55//55 55//55 
f 55//55 55//55 56//56 
f 55//55 57//57 56//56 
f 56//56 57//57 56//56 
f 57//57 58//58 56//56 
f 56//56 58//58 59//59 
f 58//58 60//60 59//59 
f 59//59 60//60 61//61 
f 60//60 62//62 61//61 
f 61//61 62//62 63//63 
f 62//62 64//64 63//63 
f 63//63 64//64 65//65 
f 64//64 66//66 65//65 
f 65//65 66//66 67//67 
f 66//66 68//68 67//67 
f 67//67 68//68 69//69 
f 68//68 69//69 69//69 
f 69//69 69//69 57//57 
f 69//69 57//57 57//57 
f 57//57 57//57 70//70 
f 57//57 55//55 70//70 
f 70//70 55//55 70//70 
f 55//55 71//71 70//70 
f 70//70 71//71 72//72 
f 71//71 72//72 72//72 
f 72//72 72//72 73//73 
f 72//72 73//73 73//73 
f 73//73 73//73 74//74 
f 73//73 75//75 74//74 
f 74//74 75//75 74//74 
f 75//75 76//76 74//74 
f 74//74 76//76 77//77 
f 76//76 78//78 77//77 
f 77//77 78//78 79//79 
f 78//78 80//80 79//79 
f 79//79 80//80 81//81 
f 80//80 82//82 81//81 
f 81//81 82//82 83//83 
f 82//82 84//84 83//83 
f 83//83 84//84 85//85 
f 84//84 86//86 85//85 
f 85//85 86//86 87//87 
f 86//86 88//88 87//87 
f 87//87 88//88 89//89 
f 88//88 90//90 89//89 
f 89//89 90//90 91//91 
f 90//90 92//92 91//91 
f 91//91 92//92 93//93 
f 92//92 94//94 93//93 
f 93//93 94//94 95//95 
f 94//94 96//96 95//95 
f 95//95 96//96 97//97 
f 96//96 98//98 97//97 
f 97//97 98//98 99//99 
f 98//98 100//100 99//99 
f 99//99 100//100 101//101 
f 100//100 102//102 101//101 
f 101//101 102//102 103//103 
f 102//102 104//104 103//103 
f 103//103 104//104 104//104 
f 104//104 105//105 104//104 
f 104//104 105//105 105//105 
f 105//105 106//106 105//105 
f 105//105 106//106 107//107 
f 106//106 108//108 107//107 
f 107//107 108//108 109//109 
f 108//108 110//110 109//109 
f 109//109 110//110 111//111 
f 110//110 112//112 111//111 
f 111//111 112//112 113//113 
f 112//112 114//114 113//113 
f 113//113 114//114 115//115 
f 114//114 116//116 115//115 
f 115//115 116//116 117//117 
f 116//116 118//118 117//117 
f 117//117 118//118 119//119 
f 118//118 120//120 119//119 
f 119//119 120//120 121//121 
f 120//120 122//122 121//121 
f 121//121 122//122 123//123 
f 122//122 124//124 123//123 
f 123//123 124//124 125//125 
f 124//124 126//126 125//125 
f 125//125 126//126 127//127 
f 126//126 128//128 127//127 
f 127//127 128//128 129//129 
f 128//128 130//130 129//129 
f 129//129 130//130 131//131 
f 130//130 132//132 131//131 
f 131//131 132//132 133//133 
f 132//132 134//134 133//133 
f 133//133 134//134 135//135 
f 134//134 136//136 135//135 

