mtllib model_10.mtl
o model_10
v -169.2283935546875 279.890380859375 -73.30387878417969 
v -163.94381713867188 276.7664794921875 -73.4446029663086 
v -168.732666015625 280.5980529785156 -70.24270629882812 
v -163.38563537597656 277.44110107421875 -71.14505004882812 
v -167.42832946777344 282.7666931152344 -68.93024444580078 
v -161.86923217773438 279.4803466796875 -70.17503356933594 
v -127.45195770263672 256.2655944824219 -72.37828063964844 
v -124.41938018798828 257.4308166503906 -71.56954193115234 
v -38.50386047363281 206.87966918945312 -73.93512725830078 
v -44.898807525634766 207.62161254882812 -74.63273620605469 
v -128.53463745117188 255.90231323242188 -74.38751983642578 
v -47.1676025390625 207.92283630371094 -76.55426025390625 
v 42.187744140625 156.32533264160156 -76.92587280273438 
v 39.027435302734375 157.13267517089844 -78.84956359863281 
v 87.3512954711914 128.8469696044922 -80.13638305664062 
v 90.01979064941406 128.29579162597656 -78.26869201660156 
v 106.57899475097656 118.6648178100586 -80.64840698242188 
v 51.17927932739258 154.125 -76.28445434570312 
v 105.16983032226562 122.43856811523438 -78.18419647216797 
v 105.75634002685547 119.61441802978516 -79.10226440429688 
v 113.87357330322266 117.3670654296875 -78.89958190917969 
v 117.46356964111328 120.56090545654297 -78.40361785888672 
v 125.20709228515625 116.02046966552734 -79.11502075195312 
v 132.67129516601562 119.13626098632812 -78.80858612060547 
v 139.6619110107422 115.03652954101562 -79.49993896484375 
v 147.7097625732422 118.0405044555664 -79.20904541015625 
v 154.27188110351562 114.20691680908203 -79.88899230957031 
v 159.1660614013672 117.29317474365234 -79.6220703125 
v 165.26666259765625 113.68409729003906 -80.26813507080078 
v 165.2934112548828 117.06702423095703 -80.4501953125 
v 170.1487274169922 113.83828735351562 -80.81697845458984 
v 167.643798828125 116.55247497558594 -82.27450561523438 
v 171.86122131347656 113.3637466430664 -82.38681030273438 
v 166.95492553710938 112.71159362792969 -82.25616455078125 
v 156.19337463378906 113.05057525634766 -81.96958923339844 
v 141.97019958496094 113.65379333496094 -81.5908432006836 
v 128.13014221191406 114.27789306640625 -81.2222900390625 
v 117.37295532226562 115.24252319335938 -80.93583679199219 
v -167.66354370117188 282.7666931152344 -77.76280212402344 
v -168.8962860107422 280.5980529785156 -76.38710021972656 
v -162.0460662841797 279.4803466796875 -76.81563568115234 
v -163.50869750976562 277.44110107421875 -75.76628875732422 
v -124.5750732421875 257.4308166503906 -77.41620635986328 
v -127.560302734375 256.2655944824219 -76.44721984863281 
v -45.0042839050293 207.62161254882812 -78.59380340576172 
v -47.1676025390625 207.92283630371094 -76.55426025390625 
v -128.53463745117188 255.90231323242188 -74.38751983642578 
v -163.94381713867188 276.7664794921875 -73.4446029663086 
v -169.2283935546875 279.890380859375 -73.30387878417969 
v -38.65541458129883 206.87966918945312 -79.62645721435547 
v 42.08088684082031 156.32534790039062 -80.93871307373047 
v 51.025657653808594 154.125 -82.05345153808594 
v 105.0407943725586 122.43856811523438 -83.0298080444336 
v 89.91661071777344 128.29579162597656 -82.1434555053711 
v 39.027435302734375 157.13267517089844 -78.84956359863281 
v 87.3512954711914 128.8469696044922 -80.13638305664062 
v 105.67533874511719 119.61441802978516 -82.14425659179688 
v 106.57899475097656 118.6648178100586 -80.64840698242188 
v 117.37295532226562 115.24252319335938 -80.93583679199219 
v 113.77027893066406 117.3670654296875 -82.77865600585938 
v 125.09919738769531 116.02046966552734 -83.16669464111328 
v 117.32878875732422 120.56090545654297 -83.46497344970703 
v 139.55401611328125 115.03652954101562 -83.5516128540039 
v 132.53651428222656 119.13626098632812 -83.86994171142578 
v 154.1639862060547 114.20691680908203 -83.94066619873047 
v 147.57498168945312 118.0405044555664 -84.2704086303711 
v 165.16336059570312 113.68409729003906 -84.14720916748047 
v 159.0370330810547 117.29317474365234 -84.46768188476562 
v 170.06773376464844 113.83828735351562 -83.85897064208984 
v 165.19976806640625 117.06702423095703 -83.96682739257812 
v 171.86122131347656 113.3637466430664 -82.38681030273438 
v 167.643798828125 116.55247497558594 -82.27450561523438 
v 166.95492553710938 112.71159362792969 -82.25616455078125 
v 156.19337463378906 113.05057525634766 -81.96958923339844 
v 141.97019958496094 113.65379333496094 -81.5908432006836 
v 128.13014221191406 114.27789306640625 -81.2222900390625 
vn -0.0034336766693741083 -0.009391993284225464 0.000015783325579832308 
vn -0.004972887225449085 -0.008674835786223412 0.00013242325803730637 
vn -0.0007069666171446443 -0.008913837373256683 0.004477010574191809 
vn -0.0031640341039747 -0.006611571181565523 0.006802642252296209 
vn 0.005413898266851902 -0.005303697660565376 0.006523835938423872 
vn -0.00013043094077147543 -0.0023079935926944017 0.009729135781526566 
vn -0.0033278774935752153 -0.00601578364148736 0.007261921651661396 
vn -0.0006379340775310993 -0.0016126427799463272 0.009848469868302345 
vn -0.0006429752102121711 -0.0015098575968295336 0.009864422492682934 
vn -0.0032432805746793747 -0.0058419350534677505 0.007439950481057167 
vn -0.00506828585639596 -0.008619917556643486 0.00009711032180348411 
vn -0.005066270940005779 -0.008619917556643486 0.00017276332073379308 
vn -0.0032425241079181433 -0.005804629530757666 0.007469420786947012 
vn -0.005066270940005779 -0.008619917556643486 0.00017276332073379308 
vn -0.004972887225449085 -0.008674835786223412 0.00013242325803730637 
vn -0.0030978727154433727 -0.006002139300107956 0.007374105975031853 
vn -0.003512198803946376 -0.009362459182739258 0.00009352638153359294 
vn -0.0004843718488700688 -0.0013524972600862384 0.009896265342831612 
vn -0.0005898599047213793 -0.0019393895054236054 0.009792382828891277 
vn -0.0028738246764987707 -0.00660684984177351 0.006934738252311945 
vn -0.0013219943502917886 -0.0058173225261271 0.008025647141039371 
vn 0.0001345137134194374 -0.0008590386132709682 0.00996212288737297 
vn -0.00025468968669883907 -0.005050917621701956 0.00862689409404993 
vn 0.00021696831390727311 -0.0007557076751254499 0.00996903982013464 
vn -0.000056610402680234984 -0.005348479375243187 0.00844928901642561 
vn 0.0002772076113615185 -0.0006898469873704016 0.009972321800887585 
vn -0.000036653891584137455 -0.005628239829093218 0.008265682496130466 
vn 0.0008724491926841438 0.0003277965006418526 0.00995647069066763 
vn 0.0007045259117148817 -0.00515903253108263 0.008537444286048412 
vn 0.0034670422319322824 0.0047721038572490215 0.008075058460235596 
vn 0.004998851101845503 -0.0012007053010165691 0.00857727974653244 
vn 0.005710754077881575 0.008207563310861588 -0.0001520720252301544 
vn 0.009669848717749119 -0.0025352828670293093 -0.0002574997488409281 
vn 0.0006475586560554802 -0.009978992864489555 -0.000017244356058654375 
vn -0.00040016259299591184 -0.009991981089115143 0.00001065554351953324 
vn -0.0005310546257533133 -0.009985875338315964 0.000014141084648144897 
vn -0.0006618553306907415 -0.009978053160011768 0.000017624193787924014 
vn -0.0014434874756261706 -0.00989518966525793 0.00003843837839667685 
vn 0.005104603245854378 -0.005329509265720844 -0.006748280022293329 
vn -0.0010505636455491185 -0.00891024712473154 -0.004416302777826786 
vn -0.0006480357842519879 -0.00230799219571054 -0.009708406403660774 
vn -0.0035215902607887983 -0.0066115702502429485 -0.0066246106289327145 
vn -0.001161170657724142 -0.0016126412665471435 -0.00980056170374155 
vn -0.0037096445448696613 -0.006015782244503498 -0.00707451906055212 
vn -0.0036346421111375093 -0.005841933656483889 -0.007256797980517149 
vn -0.005066270940005779 -0.008619917556643486 0.00017276332073379308 
vn -0.00506828585639596 -0.008619917556643486 0.00009711032180348411 
vn -0.004972887225449085 -0.008674835786223412 0.00013242325803730637 
vn -0.0034336766693741083 -0.009391993284225464 0.000015783325579832308 
vn -0.0011670537060126662 -0.0015098560834303498 -0.009816223755478859 
vn -0.0036354553885757923 -0.005804628133773804 -0.007286266423761845 
vn -0.0010103698587045074 -0.0013524957466870546 -0.00985646154731512 
vn -0.0011101796990260482 -0.0019393879920244217 -0.009747112169861794 
vn -0.0034859362058341503 -0.006002137903124094 -0.0071987854316830635 
vn -0.005066270940005779 -0.008619917556643486 0.00017276332073379308 
vn -0.004972887225449085 -0.008674835786223412 0.00013242325803730637 
vn -0.0032388223335146904 -0.006606848910450935 -0.0067719644866883755 
vn -0.003512198803946376 -0.009362459182739258 0.00009352638153359294 
vn -0.0014434874756261706 -0.00989518966525793 0.00003843837839667685 
vn -0.0017472499748691916 -0.005817321594804525 -0.007943916134536266 
vn -0.0007134565385058522 -0.005050916690379381 -0.008601113222539425 
vn -0.00039586631464771926 -0.0008590371580794454 -0.009955163113772869 
vn -0.0005062057753093541 -0.005348478443920612 -0.008434302173554897 
vn -0.00031389674404636025 -0.0007557062199339271 -0.00996645912528038 
vn -0.0004765059275086969 -0.005628238432109356 -0.008252018131315708 
vn -0.0002539174456615001 -0.0006898454739712179 -0.009972942061722279 
vn 0.00024916016263887286 -0.0051590315997600555 -0.008562840521335602 
vn 0.0003413241356611252 0.0003277979849372059 -0.00998879224061966 
vn 0.004535279236733913 -0.001200704020448029 -0.008831164799630642 
vn 0.0030323697719722986 0.0047721052542328835 -0.008248131722211838 
vn 0.009669848717749119 -0.0025352828670293093 -0.0002574997488409281 
vn 0.005710754077881575 0.008207563310861588 -0.0001520720252301544 
vn 0.0006475586560554802 -0.009978992864489555 -0.000017244356058654375 
vn -0.00040016259299591184 -0.009991981089115143 0.00001065554351953324 
vn -0.0005310546257533133 -0.009985875338315964 0.000014141084648144897 
vn -0.0006618553306907415 -0.009978053160011768 0.000017624193787924014 
s on 
f 1//1 2//2 3//3 
f 2//2 4//4 3//3 
f 3//3 4//4 5//5 
f 4//4 4//4 5//5 
f 5//5 4//4 6//6 
f 4//4 7//7 6//6 
f 6//6 7//7 8//8 
f 7//7 7//7 8//8 
f 8//8 7//7 9//9 
f 7//7 7//7 9//9 
f 9//9 7//7 10//10 
f 7//7 11//11 10//10 
f 10//10 11//11 10//10 
f 11//11 12//12 10//10 
f 10//10 12//12 13//13 
f 12//12 14//14 13//13 
f 13//13 14//14 13//13 
f 14//14 15//15 13//13 
f 13//13 15//15 16//16 
f 15//15 17//17 16//16 
f 16//16 17//17 17//17 
f 17//17 2//2 17//17 
f 17//17 2//2 2//2 
f 2//2 11//11 2//2 
f 2//2 11//11 4//4 
f 11//11 7//7 4//4 
f 4//4 7//7 7//7 
f 7//7 9//9 7//7 
f 7//7 9//9 9//9 
f 9//9 10//10 9//9 
f 9//9 10//10 18//18 
f 10//10 13//13 18//18 
f 18//18 13//13 18//18 
f 13//13 16//16 18//18 
f 18//18 16//16 19//19 
f 16//16 20//20 19//19 
f 19//19 20//20 21//21 
f 20//20 20//20 21//21 
f 21//21 20//20 17//17 
f 20//20 16//16 17//17 
f 17//17 16//16 16//16 
f 16//16 19//19 16//16 
f 16//16 19//19 19//19 
f 19//19 21//21 19//19 
f 19//19 21//21 22//22 
f 21//21 23//23 22//22 
f 22//22 23//23 24//24 
f 23//23 25//25 24//24 
f 24//24 25//25 26//26 
f 25//25 27//27 26//26 
f 26//26 27//27 28//28 
f 27//27 29//29 28//28 
f 28//28 29//29 30//30 
f 29//29 31//31 30//30 
f 30//30 31//31 32//32 
f 31//31 31//31 32//32 
f 32//32 31//31 33//33 
f 31//31 31//31 33//33 
f 33//33 31//31 34//34 
f 31//31 29//29 34//34 
f 34//34 29//29 35//35 
f 29//29 27//27 35//35 
f 35//35 27//27 36//36 
f 27//27 25//25 36//36 
f 36//36 25//25 37//37 
f 25//25 23//23 37//37 
f 37//37 23//23 38//38 
f 23//23 21//21 38//38 
f 38//38 21//21 17//17 
f 21//21 17//17 17//17 
f 17//17 17//17 39//39 
f 17//17 39//39 39//39 
f 39//39 39//39 40//40 
f 39//39 41//41 40//40 
f 40//40 41//41 42//42 
f 41//41 43//43 42//42 
f 42//42 43//43 44//44 
f 43//43 45//45 44//44 
f 44//44 45//45 44//44 
f 45//45 46//46 44//44 
f 44//44 46//46 44//44 
f 46//46 47//47 44//44 
f 44//44 47//47 44//44 
f 47//47 48//48 44//44 
f 44//44 48//48 42//42 
f 48//48 49//49 42//42 
f 42//42 49//49 40//40 
f 49//49 40//40 40//40 
f 40//40 40//40 43//43 
f 40//40 43//43 43//43 
f 43//43 43//43 45//45 
f 43//43 50//50 45//45 
f 45//45 50//50 51//51 
f 50//50 52//52 51//51 
f 51//51 52//52 51//51 
f 52//52 53//53 51//51 
f 51//51 53//53 51//51 
f 53//53 54//54 51//51 
f 51//51 54//54 55//55 
f 54//54 54//54 55//55 
f 55//55 54//54 56//56 
f 54//54 57//57 56//56 
f 56//56 57//57 58//58 
f 57//57 57//57 58//58 
f 58//58 57//57 59//59 
f 57//57 57//57 59//59 
f 59//59 57//57 60//60 
f 57//57 54//54 60//60 
f 60//60 54//54 60//60 
f 54//54 53//53 60//60 
f 60//60 53//53 61//61 
f 53//53 62//62 61//61 
f 61//61 62//62 63//63 
f 62//62 64//64 63//63 
f 63//63 64//64 65//65 
f 64//64 66//66 65//65 
f 65//65 66//66 67//67 
f 66//66 68//68 67//67 
f 67//67 68//68 69//69 
f 68//68 70//70 69//69 
f 69//69 70//70 71//71 
f 70//70 72//72 71//71 
f 71//71 72//72 72//72 
f 72//72 51//51 72//72 
f 72//72 51//51 51//51 
f 51//51 55//55 51//51 
f 51//51 55//55 45//45 
f 55//55 46//46 45//45 
f 45//45 46//46 46//46 
f 46//46 69//69 46//46 
f 46//46 69//69 69//69 
f 69//69 71//71 69//69 
f 69//69 71//71 67//67 
f 71//71 73//73 67//67 
f 67//67 73//73 65//65 
f 73//73 74//74 65//65 
f 65//65 74//74 63//63 
f 74//74 75//75 63//63 
f 63//63 75//75 61//61 
f 75//75 76//76 61//61 
f 61//61 76//76 60//60 
f 76//76 59//59 60//60 

