{"scene":0,"asset":{"generator":"ImageToStl.com","version":"2.0"},"scenes":[{"name":"Scene","nodes":[0]}],"nodes":[{"name":"Node0","children":[1,2,3,4,5,6,7,8,9,10,11,12,13]},{"name":"Node1","mesh":0},{"name":"Node2","mesh":1},{"name":"Node3","mesh":2},{"name":"Node4","mesh":3},{"name":"Node5","mesh":4},{"name":"Node6","mesh":5},{"name":"Node7","mesh":6},{"name":"Node8","mesh":7},{"name":"Node9","mesh":8},{"name":"Node10","mesh":9},{"name":"Node11","mesh":10},{"name":"Node12","mesh":11},{"name":"Node13","mesh":12}],"materials":[{"name":"5_Hokage_Hat.Hokage_Hat_1_0_0","pbrMetallicRoughness":{"baseColorFactor":[0.8,0.8,0.8,1.0],"metallicFactor":0.5,"roughnessFactor":0.9616},"emissiveFactor":[0.0,0.0,0.0],"doubleSided":true},{"name":"5_Eyes_1_0_0","pbrMetallicRoughness":{"baseColorFactor":[0.8,0.8,0.8,1.0],"metallicFactor":0.5,"roughnessFactor":0.9616},"emissiveFactor":[0.0,0.0,0.0],"doubleSided":true},{"name":"5_Face_1_0_0","pbrMetallicRoughness":{"baseColorFactor":[0.8,0.8,0.8,1.0],"metallicFactor":0.5,"roughnessFactor":0.9616},"emissiveFactor":[0.0,0.0,0.0],"doubleSided":true},{"name":"5_Hair_1_0_0","pbrMetallicRoughness":{"baseColorFactor":[0.8,0.8,0.8,1.0],"metallicFactor":0.5,"roughnessFactor":0.9616},"emissiveFactor":[0.0,0.0,0.0],"doubleSided":true},{"name":"5_Hokage_Cape_1_0_0","pbrMetallicRoughness":{"baseColorFactor":[0.8,0.8,0.8,1.0],"metallicFactor":0.5,"roughnessFactor":0.9616},"emissiveFactor":[0.0,0.0,0.0],"doubleSided":true},{"name":"5_Lower_Body_1_0_0","pbrMetallicRoughness":{"baseColorFactor":[0.8,0.8,0.8,1.0],"metallicFactor":0.5,"roughnessFactor":0.9616},"emissiveFactor":[0.0,0.0,0.0],"doubleSided":true},{"name":"5_Teeth_1_0_0","pbrMetallicRoughness":{"baseColorFactor":[0.8,0.8,0.8,1.0],"metallicFactor":0.5,"roughnessFactor":0.9616},"emissiveFactor":[0.0,0.0,0.0],"doubleSided":true},{"name":"5_Tongue_1_0_0","pbrMetallicRoughness":{"baseColorFactor":[0.8,0.8,0.8,1.0],"metallicFactor":0.5,"roughnessFactor":0.9616},"emissiveFactor":[0.0,0.0,0.0],"doubleSided":true},{"name":"5_Upper_Body_1_0_0","pbrMetallicRoughness":{"baseColorFactor":[0.8,0.8,0.8,1.0],"metallicFactor":0.5,"roughnessFactor":0.9616},"emissiveFactor":[0.0,0.0,0.0],"doubleSided":true},{"name":"Material_1.003","pbrMetallicRoughness":{"baseColorFactor":[0.8,0.8,0.8,1.0],"metallicFactor":0.5,"roughnessFactor":0.64},"emissiveFactor":[0.0,0.0,0.0],"doubleSided":true},{"name":"Material_0.003","pbrMetallicRoughness":{"baseColorFactor":[0.8,0.8,0.8,1.0],"metallicFactor":0.5,"roughnessFactor":0.64},"emissiveFactor":[0.0,0.0,0.0],"doubleSided":true},{"name":"Material_2.003","pbrMetallicRoughness":{"baseColorFactor":[0.8,0.8,0.8,1.0],"metallicFactor":0.5,"roughnessFactor":0.64},"emissiveFactor":[0.0,0.0,0.0],"doubleSided":true},{"name":"Material","pbrMetallicRoughness":{"baseColorFactor":[0.001624,0.0,0.800331,1.0],"metallicFactor":0.5,"roughnessFactor":0.75},"emissiveFactor":[0.0,0.0,0.0],"doubleSided":true}],"meshes":[{"name":"Mesh0","primitives":[{"indices":3,"material":0,"attributes":{"POSITION":0,"NORMAL":1,"TEXCOORD_0":2}}]},{"name":"Mesh0","primitives":[{"indices":7,"material":1,"attributes":{"POSITION":4,"NORMAL":5,"TEXCOORD_0":6}}]},{"name":"Mesh0","primitives":[{"indices":11,"material":2,"attributes":{"POSITION":8,"NORMAL":9,"TEXCOORD_0":10}}]},{"name":"Mesh0","primitives":[{"indices":15,"material":3,"attributes":{"POSITION":12,"NORMAL":13,"TEXCOORD_0":14}}]},{"name":"Mesh0","primitives":[{"indices":19,"material":4,"attributes":{"POSITION":16,"NORMAL":17,"TEXCOORD_0":18}}]},{"name":"Mesh0","primitives":[{"indices":23,"material":5,"attributes":{"POSITION":20,"NORMAL":21,"TEXCOORD_0":22}}]},{"name":"Mesh0","primitives":[{"indices":27,"material":6,"attributes":{"POSITION":24,"NORMAL":25,"TEXCOORD_0":26}}]},{"name":"Mesh0","primitives":[{"indices":31,"material":7,"attributes":{"POSITION":28,"NORMAL":29,"TEXCOORD_0":30}}]},{"name":"Mesh0","primitives":[{"indices":35,"material":8,"attributes":{"POSITION":32,"NORMAL":33,"TEXCOORD_0":34}}]},{"name":"Mesh0","primitives":[{"indices":39,"material":9,"attributes":{"POSITION":36,"NORMAL":37,"TEXCOORD_0":38}}]},{"name":"Mesh0","primitives":[{"indices":43,"material":10,"attributes":{"POSITION":40,"NORMAL":41,"TEXCOORD_0":42}}]},{"name":"Mesh0","primitives":[{"indices":47,"material":11,"attributes":{"POSITION":44,"NORMAL":45,"TEXCOORD_0":46}}]},{"name":"Mesh0","primitives":[{"indices":51,"material":12,"attributes":{"POSITION":48,"NORMAL":49,"TEXCOORD_0":50}}]}],"accessors":[{"bufferView":0,"componentType":5126,"count":1516,"type":"VEC3","min":[-14.345635,-15.901854,10.894935],"max":[-10.547462,-12.079569,13.693005]},{"bufferView":1,"componentType":5126,"count":1516,"type":"VEC3"},{"bufferView":2,"componentType":5126,"count":1516,"type":"VEC2"},{"bufferView":3,"componentType":5123,"count":7704,"type":"SCALAR"},{"bufferView":4,"componentType":5126,"count":2404,"type":"VEC3","min":[-12.851523,-13.941025,12.152704],"max":[-12.109663,-13.085318,12.692983]},{"bufferView":5,"componentType":5126,"count":2404,"type":"VEC3"},{"bufferView":6,"componentType":5126,"count":2404,"type":"VEC2"},{"bufferView":7,"componentType":5123,"count":43200,"type":"SCALAR"},{"bufferView":8,"componentType":5126,"count":2934,"type":"VEC3","min":[-13.273109,-14.347061,11.559084],"max":[-12.047277,-13.042572,12.969037]},{"bufferView":9,"componentType":5126,"count":2934,"type":"VEC3"},{"bufferView":10,"componentType":5126,"count":2934,"type":"VEC2"},{"bufferView":11,"componentType":5123,"count":19854,"type":"SCALAR"},{"bufferView":12,"componentType":5126,"count":2160,"type":"VEC3","min":[-13.558347,-14.439007,11.771418],"max":[-11.936273,-12.913686,13.443311]},{"bufferView":13,"componentType":5126,"count":2160,"type":"VEC3"},{"bufferView":14,"componentType":5126,"count":2160,"type":"VEC2"},{"bufferView":15,"componentType":5123,"count":20322,"type":"SCALAR"},{"bufferView":16,"componentType":5126,"count":2374,"type":"VEC3","min":[-15.27755,-17.958317,5.894968],"max":[-7.7088203,-10.489798,11.840327]},{"bufferView":17,"componentType":5126,"count":2374,"type":"VEC3"},{"bufferView":18,"componentType":5126,"count":2374,"type":"VEC2"},{"bufferView":19,"componentType":5123,"count":26136,"type":"SCALAR"},{"bufferView":20,"componentType":5126,"count":6092,"type":"VEC3","min":[-14.212417,-15.688322,0.89965117],"max":[-10.619243,-11.255522,8.162163]},{"bufferView":21,"componentType":5126,"count":6092,"type":"VEC3"},{"bufferView":22,"componentType":5126,"count":6092,"type":"VEC2"},{"bufferView":23,"componentType":5123,"count":32670,"type":"SCALAR"},{"bufferView":24,"componentType":5126,"count":871,"type":"VEC3","min":[-12.648992,-13.754918,11.710188],"max":[-12.16878,-13.238059,12.089399]},{"bufferView":25,"componentType":5126,"count":871,"type":"VEC3"},{"bufferView":26,"componentType":5126,"count":871,"type":"VEC2"},{"bufferView":27,"componentType":5123,"count":8064,"type":"SCALAR"},{"bufferView":28,"componentType":5126,"count":70,"type":"VEC3","min":[-12.636885,-13.664522,11.7984],"max":[-12.243902,-13.323707,11.919978]},{"bufferView":29,"componentType":5126,"count":70,"type":"VEC3"},{"bufferView":30,"componentType":5126,"count":70,"type":"VEC2"},{"bufferView":31,"componentType":5123,"count":1188,"type":"SCALAR"},{"bufferView":32,"componentType":5126,"count":7743,"type":"VEC3","min":[-14.368214,-15.297609,6.5770307],"max":[-8.147946,-11.210277,12.595015]},{"bufferView":33,"componentType":5126,"count":7743,"type":"VEC3"},{"bufferView":34,"componentType":5126,"count":7743,"type":"VEC2"},{"bufferView":35,"componentType":5123,"count":59922,"type":"SCALAR"},{"bufferView":36,"componentType":5126,"count":289,"type":"VEC3","min":[-9.367176,-14.398934,9.393574],"max":[-8.322504,-13.352732,10.444637]},{"bufferView":37,"componentType":5126,"count":289,"type":"VEC3"},{"bufferView":38,"componentType":5126,"count":289,"type":"VEC2"},{"bufferView":39,"componentType":5123,"count":4536,"type":"SCALAR"},{"bufferView":40,"componentType":5126,"count":1079,"type":"VEC3","min":[-9.357296,-14.381366,9.40654],"max":[-8.336414,-13.366083,10.437206]},{"bufferView":41,"componentType":5126,"count":1079,"type":"VEC3"},{"bufferView":42,"componentType":5126,"count":1079,"type":"VEC2"},{"bufferView":43,"componentType":5123,"count":16020,"type":"SCALAR"},{"bufferView":44,"componentType":5126,"count":288,"type":"VEC3","min":[-9.179426,-14.216314,9.582784],"max":[-8.502508,-13.534469,10.259502]},{"bufferView":45,"componentType":5126,"count":288,"type":"VEC3"},{"bufferView":46,"componentType":5126,"count":288,"type":"VEC2"},{"bufferView":47,"componentType":5123,"count":4536,"type":"SCALAR"},{"bufferView":48,"componentType":5126,"count":63,"type":"VEC3","min":[-0.95105785,-0.99999994,-1.0],"max":[0.95105785,0.99999994,1.0]},{"bufferView":49,"componentType":5126,"count":63,"type":"VEC3"},{"bufferView":50,"componentType":5126,"count":63,"type":"VEC2"},{"bufferView":51,"componentType":5123,"count":720,"type":"SCALAR"}],"bufferViews":[{"target":34962,"buffer":0,"byteLength":18192,"byteOffset":0},{"target":34962,"buffer":0,"byteLength":18192,"byteOffset":18192},{"target":34962,"buffer":0,"byteLength":12128,"byteOffset":36384},{"target":34963,"buffer":0,"byteLength":15408,"byteOffset":48512},{"target":34962,"buffer":0,"byteLength":28848,"byteOffset":63920},{"target":34962,"buffer":0,"byteLength":28848,"byteOffset":92768},{"target":34962,"buffer":0,"byteLength":19232,"byteOffset":121616},{"target":34963,"buffer":0,"byteLength":86400,"byteOffset":140848},{"target":34962,"buffer":0,"byteLength":35208,"byteOffset":227248},{"target":34962,"buffer":0,"byteLength":35208,"byteOffset":262456},{"target":34962,"buffer":0,"byteLength":23472,"byteOffset":297664},{"target":34963,"buffer":0,"byteLength":39708,"byteOffset":321136},{"target":34962,"buffer":0,"byteLength":25920,"byteOffset":360844},{"target":34962,"buffer":0,"byteLength":25920,"byteOffset":386764},{"target":34962,"buffer":0,"byteLength":17280,"byteOffset":412684},{"target":34963,"buffer":0,"byteLength":40644,"byteOffset":429964},{"target":34962,"buffer":0,"byteLength":28488,"byteOffset":470608},{"target":34962,"buffer":0,"byteLength":28488,"byteOffset":499096},{"target":34962,"buffer":0,"byteLength":18992,"byteOffset":527584},{"target":34963,"buffer":0,"byteLength":52272,"byteOffset":546576},{"target":34962,"buffer":0,"byteLength":73104,"byteOffset":598848},{"target":34962,"buffer":0,"byteLength":73104,"byteOffset":671952},{"target":34962,"buffer":0,"byteLength":48736,"byteOffset":745056},{"target":34963,"buffer":0,"byteLength":65340,"byteOffset":793792},{"target":34962,"buffer":0,"byteLength":10452,"byteOffset":859132},{"target":34962,"buffer":0,"byteLength":10452,"byteOffset":869584},{"target":34962,"buffer":0,"byteLength":6968,"byteOffset":880036},{"target":34963,"buffer":0,"byteLength":16128,"byteOffset":887004},{"target":34962,"buffer":0,"byteLength":840,"byteOffset":903132},{"target":34962,"buffer":0,"byteLength":840,"byteOffset":903972},{"target":34962,"buffer":0,"byteLength":560,"byteOffset":904812},{"target":34963,"buffer":0,"byteLength":2376,"byteOffset":905372},{"target":34962,"buffer":0,"byteLength":92916,"byteOffset":907748},{"target":34962,"buffer":0,"byteLength":92916,"byteOffset":1000664},{"target":34962,"buffer":0,"byteLength":61944,"byteOffset":1093580},{"target":34963,"buffer":0,"byteLength":119844,"byteOffset":1155524},{"target":34962,"buffer":0,"byteLength":3468,"byteOffset":1275368},{"target":34962,"buffer":0,"byteLength":3468,"byteOffset":1278836},{"target":34962,"buffer":0,"byteLength":2312,"byteOffset":1282304},{"target":34963,"buffer":0,"byteLength":9072,"byteOffset":1284616},{"target":34962,"buffer":0,"byteLength":12948,"byteOffset":1293688},{"target":34962,"buffer":0,"byteLength":12948,"byteOffset":1306636},{"target":34962,"buffer":0,"byteLength":8632,"byteOffset":1319584},{"target":34963,"buffer":0,"byteLength":32040,"byteOffset":1328216},{"target":34962,"buffer":0,"byteLength":3456,"byteOffset":1360256},{"target":34962,"buffer":0,"byteLength":3456,"byteOffset":1363712},{"target":34962,"buffer":0,"byteLength":2304,"byteOffset":1367168},{"target":34963,"buffer":0,"byteLength":9072,"byteOffset":1369472},{"target":34962,"buffer":0,"byteLength":756,"byteOffset":1378544},{"target":34962,"buffer":0,"byteLength":756,"byteOffset":1379300},{"target":34962,"buffer":0,"byteLength":504,"byteOffset":1380056},{"target":34963,"buffer":0,"byteLength":1440,"byteOffset":1380560}],"buffers":[{"byteLength":1382000,"uri":"data:application/octet-stream;base64,"}]}